<svg viewBox="0 0 32 48" fill="none" xmlns="http://www.w3.org/2000/svg">
<path d="M5.368 19H0.072V0.248H2.184C2.74933 0.248 3.60267 0.226667 4.744 0.184C5.88533 0.130667 6.824 0.104001 7.56 0.104001C9.62933 0.104001 11.1973 0.653334 12.264 1.752C13.3307 2.85067 13.864 4.49867 13.864 6.696C13.864 8.01867 13.688 9.224 13.336 10.312C12.9947 11.3893 12.5307 12.2747 11.944 12.968C11.3573 13.6613 10.6907 14.1947 9.944 14.568C9.19733 14.9413 8.408 15.128 7.576 15.128C7.46933 15.128 7.35733 15.128 7.24 15.128C7.13333 15.128 7.032 15.128 6.936 15.128C6.85067 15.1173 6.744 15.112 6.616 15.112C6.49867 15.1013 6.40267 15.096 6.328 15.096C6.264 15.0853 6.168 15.08 6.04 15.08C5.92267 15.0693 5.84267 15.064 5.8 15.064C5.75733 15.064 5.67733 15.0587 5.56 15.048C5.44267 15.0373 5.37867 15.032 5.368 15.032V19ZM8.616 5.992C8.616 5.20267 8.40267 4.56267 7.976 4.072C7.54933 3.58133 6.936 3.336 6.136 3.336H5.368V11.656H5.96C6.80267 11.656 7.45333 11.3733 7.912 10.808C8.38133 10.2427 8.616 9.42667 8.616 8.36V5.992ZM18.048 19V4.488H14.304V0.248H27.2V4.488H23.456V19H18.048Z" fill="#001AFF"/>
</svg>