<svg viewBox="0 0 113 40" fill="none" xmlns="http://www.w3.org/2000/svg">
<path d="M5.664 20.32C3.91467 20.32 2.29333 19.8453 0.8 18.896V16.272C1.54667 16.8373 2.38933 17.12 3.328 17.12C3.98933 17.12 4.544 17.0453 4.992 16.896C5.44 16.736 5.77067 16.5173 5.984 16.24C6.19733 15.9627 6.34133 15.6853 6.416 15.408C6.50133 15.1307 6.544 14.8107 6.544 14.448C6.544 12.6027 5.45067 11.68 3.264 11.68H2.848V9.488H3.056C4.22933 9.488 5.104 9.31733 5.68 8.976C6.256 8.624 6.544 7.95733 6.544 6.976C6.544 6.016 6.25067 5.31733 5.664 4.88C5.07733 4.432 4.29867 4.208 3.328 4.208C2.38933 4.208 1.54667 4.49067 0.8 5.056V2.432C2.31467 1.46133 3.936 0.976 5.664 0.976C6.83733 0.976 7.85067 1.10933 8.704 1.376C9.568 1.64267 10.2507 2.02133 10.752 2.512C11.264 3.00267 11.6373 3.56267 11.872 4.192C12.1173 4.82133 12.24 5.53067 12.24 6.32C12.24 8.688 10.9707 9.97867 8.432 10.192C9.79733 10.2987 10.88 10.784 11.68 11.648C12.48 12.5013 12.88 13.728 12.88 15.328C12.88 16.736 12.2507 17.92 10.992 18.88C9.73333 19.84 7.95733 20.32 5.664 20.32ZM20.0086 20H14.7126V1.248H16.8246C17.39 1.248 18.2433 1.22667 19.3846 1.184C20.526 1.13067 21.4646 1.104 22.2006 1.104C24.27 1.104 25.838 1.65333 26.9046 2.752C27.9713 3.85067 28.5046 5.49867 28.5046 7.696C28.5046 9.01867 28.3286 10.224 27.9766 11.312C27.6353 12.3893 27.1713 13.2747 26.5846 13.968C25.998 14.6613 25.3313 15.1947 24.5846 15.568C23.838 15.9413 23.0486 16.128 22.2166 16.128C22.11 16.128 21.998 16.128 21.8806 16.128C21.774 16.128 21.6726 16.128 21.5766 16.128C21.4913 16.1173 21.3846 16.112 21.2566 16.112C21.1393 16.1013 21.0433 16.096 20.9686 16.096C20.9046 16.0853 20.8086 16.08 20.6806 16.08C20.5633 16.0693 20.4833 16.064 20.4406 16.064C20.398 16.064 20.318 16.0587 20.2006 16.048C20.0833 16.0373 20.0193 16.032 20.0086 16.032V20ZM23.2566 6.992C23.2566 6.20267 23.0433 5.56267 22.6166 5.072C22.19 4.58133 21.5766 4.336 20.7766 4.336H20.0086V12.656H20.6006C21.4433 12.656 22.094 12.3733 22.5526 11.808C23.022 11.2427 23.2566 10.4267 23.2566 9.36V6.992ZM33.7766 20H28.9606L30.4486 1.248H37.9526L39.3606 7.536L40.0006 10.72L40.6086 7.552L41.8566 1.248H48.5446L49.9206 20H44.9446L44.1286 8.976L43.9366 4.912L41.4886 18.128H37.3126L34.3686 4.912L34.2726 8.976L33.7766 20Z" fill="#FA0000"/>
</svg>