<svg viewBox="0 0 114 48" fill="none" xmlns="http://www.w3.org/2000/svg">
<path d="M6.656 20.336C5.83467 20.336 5.06667 20.2613 4.352 20.112C3.648 19.9733 3.056 19.7867 2.576 19.552C2.096 19.3173 1.70133 19.0933 1.392 18.88C1.09333 18.6667 0.842667 18.4533 0.64 18.24L1.04 14.352C1.47733 14.9387 2.064 15.4507 2.8 15.888C3.536 16.3147 4.33067 16.528 5.184 16.528C6.03733 16.528 6.65067 16.4373 7.024 16.256C7.408 16.0747 7.6 15.744 7.6 15.264C7.6 14.752 7.38133 14.3147 6.944 13.952C6.51733 13.5893 5.776 13.152 4.72 12.64C4.336 12.448 4.01067 12.2773 3.744 12.128C3.47733 11.968 3.12 11.712 2.672 11.36C2.23467 10.9973 1.87733 10.624 1.6 10.24C1.32267 9.84533 1.07733 9.344 0.864 8.736C0.650667 8.11733 0.544 7.456 0.544 6.752C0.544 2.944 2.69333 1.04 6.992 1.04C7.67467 1.04 8.31467 1.11467 8.912 1.264C9.52 1.40267 9.99467 1.55733 10.336 1.728C10.6773 1.89867 10.9867 2.10133 11.264 2.336C11.552 2.56 11.7333 2.72 11.808 2.816C11.8827 2.90133 11.936 2.97067 11.968 3.024L11.168 6.112C10.752 5.62133 10.2293 5.25867 9.6 5.024C8.98133 4.77867 8.38933 4.656 7.824 4.656C6.45867 4.656 5.776 5.08267 5.776 5.936C5.776 6.16 5.81867 6.36267 5.904 6.544C5.98933 6.72533 6.128 6.89067 6.32 7.04C6.512 7.18933 6.688 7.31733 6.848 7.424C7.01867 7.53067 7.248 7.664 7.536 7.824C7.83467 7.97333 8.05867 8.096 8.208 8.192C9.76533 8.85333 10.9067 9.63733 11.632 10.544C12.368 11.4507 12.736 12.5547 12.736 13.856C12.736 15.968 12.2133 17.5787 11.168 18.688C10.1333 19.7867 8.62933 20.336 6.656 20.336ZM19.8554 12.752C19.8554 14.5227 19.9887 15.7547 20.2554 16.448C20.5327 17.1413 21.0127 17.488 21.6954 17.488C22.1967 17.488 22.5754 17.3653 22.8314 17.12C23.0874 16.864 23.2794 16.3467 23.4074 15.568C23.546 14.7787 23.6154 13.6 23.6154 12.032V8.176C23.6154 6.65067 23.466 5.51467 23.1674 4.768C22.8687 4.02133 22.378 3.648 21.6954 3.648C21.0127 3.648 20.5327 4.016 20.2554 4.752C19.9887 5.47733 19.8554 6.80533 19.8554 8.736V12.752ZM21.3594 20.336C20.474 20.336 19.674 20.256 18.9594 20.096C18.2554 19.936 17.6474 19.712 17.1354 19.424C16.6234 19.136 16.1754 18.768 15.7914 18.32C15.418 17.872 15.114 17.392 14.8794 16.88C14.6554 16.368 14.474 15.7707 14.3354 15.088C14.1967 14.3947 14.1007 13.7067 14.0474 13.024C13.994 12.3307 13.9674 11.552 13.9674 10.688C13.9674 9.408 14.0314 8.29333 14.1594 7.344C14.298 6.39467 14.5487 5.504 14.9114 4.672C15.274 3.82933 15.754 3.14667 16.3514 2.624C16.9594 2.10133 17.738 1.69067 18.6874 1.392C19.6474 1.09333 20.778 0.944001 22.0794 0.944001C22.9754 0.944001 23.7807 1.02933 24.4954 1.2C25.21 1.36 25.8234 1.584 26.3354 1.872C26.8474 2.16 27.29 2.53333 27.6634 2.992C28.0474 3.45067 28.3514 3.94133 28.5754 4.464C28.81 4.976 28.9967 5.57867 29.1354 6.272C29.274 6.96533 29.37 7.65333 29.4234 8.336C29.4767 9.01867 29.5034 9.792 29.5034 10.656C29.5034 11.936 29.434 13.0507 29.2954 14C29.1567 14.9493 28.906 15.84 28.5434 16.672C28.1807 17.4933 27.6954 18.1653 27.0874 18.688C26.4794 19.2 25.6954 19.6053 24.7354 19.904C23.786 20.192 22.6607 20.336 21.3594 20.336ZM31.1657 20V1.248H36.4617V15.712H41.2297V20H31.1657ZM49.945 20.336C48.8463 20.336 47.8703 20.2293 47.017 20.016C46.1743 19.8027 45.481 19.5147 44.937 19.152C44.4037 18.7893 43.961 18.3413 43.609 17.808C43.2677 17.264 43.0277 16.6933 42.889 16.096C42.7503 15.4987 42.681 14.8373 42.681 14.112V1.248H48.377V13.392C48.377 14.7467 48.5157 15.68 48.793 16.192C49.081 16.6933 49.497 16.944 50.041 16.944C50.3397 16.944 50.601 16.896 50.825 16.8C51.049 16.6933 51.257 16.5173 51.449 16.272C51.641 16.016 51.785 15.6533 51.881 15.184C51.9877 14.704 52.041 14.1227 52.041 13.44V1.248H57.097V14.208C57.097 14.9227 57.033 15.568 56.905 16.144C56.7877 16.72 56.5637 17.28 56.233 17.824C55.913 18.3573 55.4863 18.8053 54.953 19.168C54.4303 19.52 53.7423 19.8027 52.889 20.016C52.0463 20.2293 51.065 20.336 49.945 20.336ZM62.2199 20V5.488H58.4759V1.248H71.3719V5.488H67.6279V20H62.2199ZM72.8388 20V1.248H78.2947V20H72.8388ZM85.9022 12.752C85.9022 14.5227 86.0356 15.7547 86.3023 16.448C86.5796 17.1413 87.0596 17.488 87.7423 17.488C88.2436 17.488 88.6223 17.3653 88.8783 17.12C89.1343 16.864 89.3263 16.3467 89.4542 15.568C89.5929 14.7787 89.6622 13.6 89.6622 12.032V8.176C89.6622 6.65067 89.5129 5.51467 89.2143 4.768C88.9156 4.02133 88.4249 3.648 87.7423 3.648C87.0596 3.648 86.5796 4.016 86.3023 4.752C86.0356 5.47733 85.9022 6.80533 85.9022 8.736V12.752ZM87.4063 20.336C86.5209 20.336 85.7209 20.256 85.0063 20.096C84.3023 19.936 83.6942 19.712 83.1822 19.424C82.6703 19.136 82.2223 18.768 81.8383 18.32C81.4649 17.872 81.1609 17.392 80.9262 16.88C80.7023 16.368 80.5209 15.7707 80.3822 15.088C80.2436 14.3947 80.1476 13.7067 80.0942 13.024C80.0409 12.3307 80.0143 11.552 80.0143 10.688C80.0143 9.408 80.0782 8.29333 80.2062 7.344C80.3449 6.39467 80.5956 5.504 80.9582 4.672C81.3209 3.82933 81.8009 3.14667 82.3983 2.624C83.0062 2.10133 83.7849 1.69067 84.7343 1.392C85.6943 1.09333 86.8249 0.944001 88.1262 0.944001C89.0222 0.944001 89.8276 1.02933 90.5422 1.2C91.2569 1.36 91.8702 1.584 92.3822 1.872C92.8942 2.16 93.3369 2.53333 93.7103 2.992C94.0943 3.45067 94.3983 3.94133 94.6223 4.464C94.8569 4.976 95.0436 5.57867 95.1822 6.272C95.3209 6.96533 95.4169 7.65333 95.4703 8.336C95.5236 9.01867 95.5503 9.792 95.5503 10.656C95.5503 11.936 95.4809 13.0507 95.3422 14C95.2036 14.9493 94.9529 15.84 94.5902 16.672C94.2276 17.4933 93.7422 18.1653 93.1342 18.688C92.5262 19.2 91.7422 19.6053 90.7823 19.904C89.8329 20.192 88.7076 20.336 87.4063 20.336ZM102.301 20H97.2126V2.752L96.4286 1.248H102.317L105.261 7.328L108.077 13.392L107.293 6.272V1.248H112.397V20H107.517L103.709 12.592L101.357 7.952L102.301 14.096V20Z" fill="#0047FF"/>
</svg>